<svg xmlns="http://www.w3.org/2000/svg" xmlns:xlink="http://www.w3.org/1999/xlink" style="enable-background:new 0 0 512 512;" version="1.1" xml:space="preserve" viewBox="16 106.04 480 299.92"><g id="commercial_x2C__cover_x2C__credit_x2C__card_x2C__shopify"><g><path d="M495.998,390.001c0,8.836-7.215,15.959-16.051,15.959H32.053    c-8.836,0-16.051-7.123-16.051-15.959V122.005c0-8.842,7.215-15.965,16.051-15.965h447.895c8.836,0,16.051,7.123,16.051,15.965    V390.001L495.998,390.001z" style="fill-rule:evenodd;clip-rule:evenodd;fill:#8DB53F;"/><g><path d="M87.318,270.574c3.033,1.629,8.342,3.688,13.438,3.576     c4.657,0,7.152-2.497,7.152-5.524c0-3.037-1.842-4.985-6.827-7.806c-6.177-3.576-10.73-8.56-10.73-15.062     c0-11.485,9.861-19.728,24.168-19.728c6.284,0,11.163,1.192,13.762,2.711l-3.792,11.597c-2.277-0.978-5.961-2.163-10.19-2.163     c-4.657,0-7.586,2.059-7.586,5.413c0,2.6,2.062,4.555,6.292,6.725c6.389,3.68,11.699,8.664,11.699,15.706     c0,13.012-10.511,20.38-25.248,20.269c-6.72-0.104-13.007-1.947-16.147-4.005L87.318,270.574z" style="fill-rule:evenodd;clip-rule:evenodd;fill:#FFFFFF;"/><path d="M128.066,285.206l15.821-83.561h16.367l-6.289,32.842     l0.218,0.112c4.443-5.207,10.08-8.672,17.336-8.672c8.564,0,13.441,5.524,13.441,14.848c0,2.813-0.541,7.042-1.192,10.618     l-6.396,33.813h-16.364l6.069-32.731c0.543-2.273,0.763-4.983,0.763-7.258c0-3.472-1.411-5.96-5.096-5.96     c-5.202,0-10.837,6.604-12.896,17.335l-5.528,28.614H128.066L128.066,285.206z" style="fill-rule:evenodd;clip-rule:evenodd;fill:#FFFFFF;"/><path d="M244.024,248.794c0,20.26-13.004,37.604-32.298,37.604     c-14.736,0-22.542-10.188-22.542-22.867c0-19.832,13.009-37.604,32.732-37.604C237.196,225.927,244.024,237.087,244.024,248.794     L244.024,248.794z M205.875,263.094c0,5.961,2.385,10.731,7.908,10.731c8.673,0,13.549-15.388,13.549-25.467     c0-4.88-1.951-9.864-7.695-9.864C210.752,238.494,205.875,253.778,205.875,263.094L205.875,263.094z" style="fill-rule:evenodd;clip-rule:evenodd;fill:#FFFFFF;"/><path d="M240.121,308.398l11.379-59.826     c1.303-6.717,2.602-15.819,3.361-21.675h14.415l-0.978,8.782h0.325c4.337-6.177,10.729-9.753,17.231-9.753     c12.03,0,16.91,9.856,16.91,20.809c0,19.936-12.577,39.663-31.865,39.663c-4.009,0-7.697-0.978-9.537-2.17h-0.327l-4.553,24.17     H240.121L240.121,308.398z M263.529,271.653c1.736,1.416,3.688,2.385,6.721,2.385c9.104,0,15.387-15.062,15.387-25.57     c0-4.442-1.519-8.998-6.5-8.998c-5.743,0-11.058,6.717-12.898,16.907L263.529,271.653z" style="fill-rule:evenodd;clip-rule:evenodd;fill:#FFFFFF;"/><path d="M303.195,285.206l11.056-57.983h16.365l-11.056,57.983     H303.195z M324.44,220.077c-4.664,0-7.701-3.259-7.701-8.132c0-5.309,4.125-9.427,9.323-9.427c4.983,0,8.131,3.355,8.131,8.124     c-0.11,6.072-4.443,9.435-9.538,9.435H324.44z" style="fill-rule:evenodd;clip-rule:evenodd;fill:#FFFFFF;"/><path d="M333.757,285.206l8.671-45.735h-7.59l2.385-12.352h7.59     l0.43-2.71c1.304-6.939,3.902-13.767,9.537-18.535c4.34-3.791,10.189-5.413,15.938-5.413c4.005,0,7.043,0.54,8.878,1.406     l-3.141,12.789c-1.405-0.438-3.138-0.866-5.198-0.866c-5.531,0-8.782,4.983-9.759,10.619l-0.646,2.71h11.375l-2.161,12.352     h-11.272l-8.671,45.735H333.757L333.757,285.206z" style="fill-rule:evenodd;clip-rule:evenodd;fill:#FFFFFF;"/><path d="M392.496,227.223l2.599,26.119     c0.763,5.747,1.192,9.975,1.519,13.767h0.214c1.303-4.015,2.495-7.591,4.88-13.871l9.864-26.015h17.12l-20.046,42.922     c-7.153,14.736-13.98,25.466-21.459,32.508c-5.748,5.421-12.679,8.131-15.931,8.887l-4.554-13.87     c2.71-0.978,6.176-2.385,9.212-4.657c3.791-2.607,7.042-6.184,8.888-9.864c0.54-0.762,0.649-1.518,0.437-2.71l-9.863-53.215     H392.496L392.496,227.223z" style="fill-rule:evenodd;clip-rule:evenodd;fill:#FFFFFF;"/></g></g></g><g id="Layer_1"/></svg>