<?xml version="1.0" ?><!DOCTYPE svg  PUBLIC '-//W3C//DTD SVG 1.1//EN'  'http://www.w3.org/Graphics/SVG/1.1/DTD/svg11.dtd'><svg height="512px" style="enable-background:new 0 0 512 512;" version="1.1" viewBox="0 0 512 512" width="512px" xml:space="preserve" xmlns="http://www.w3.org/2000/svg" xmlns:xlink="http://www.w3.org/1999/xlink"><g id="commercial_x2C__cover_x2C__credit_x2C__card_x2C__skrill_x2C__moneybookers"><g><path d="M495.951,389.952c0,8.835-7.123,16.051-15.959,16.051H32.008    c-8.836,0-15.959-7.216-15.959-16.051V122.049c0-8.836,7.123-16.052,15.959-16.052h447.898c8.922,0,16.045,7.216,16.045,16.052    V389.952L495.951,389.952z" style="fill-rule:evenodd;clip-rule:evenodd;fill:#872165;"/><path d="M339.686,190.671l23.803-4.239v91.255h-23.803V190.671z     M374.4,190.671v87.016h23.801v-91.255L374.4,190.671z M305.869,277.687h23.717v-66.731h-23.717V277.687z M148.694,220.339    c-3.069-0.185-10.011-0.634-10.011-6.857c0-7.572,10.011-7.572,13.797-7.572c6.583,0,15.147,1.892,21.279,3.789    c0,0,3.426,1.171,6.313,2.434l0.271,0.093v-0.277v-20.469l-0.361-0.087c-7.215-2.526-15.602-4.96-31.199-4.96    c-26.782,0-36.252,15.596-36.252,28.941c0,7.758,3.247,25.886,33.996,28.048c2.616,0.093,9.468,0.543,9.468,6.944    c0,5.41-5.589,8.564-15.148,8.564c-10.37,0-20.558-2.705-26.692-5.23v21.374c9.199,2.342,19.569,3.605,31.742,3.605    c26.239,0,37.962-14.788,37.962-29.397C183.858,232.601,170.694,221.868,148.694,220.339L148.694,220.339z M292.432,209.97    c-22.002,0.721-33.092,10.549-33.092,30.118v37.599h23.895v-30.661c0-11.719,1.621-16.771,15.512-17.222v-19.477    C296.398,209.784,292.432,209.97,292.432,209.97L292.432,209.97z M227.951,210.869c-0.542,1.355-4.412,12.083-13.61,23.267    v-47.704l-24.53,4.868v86.387h24.53v-26.692c7.122,10.641,10.641,26.692,10.641,26.692h29.392    c-2.885-12.083-15.603-34.357-15.603-34.357c11.362-14.518,16.415-29.934,17.229-32.46H227.951L227.951,210.869z M317.682,204.554    c6.494,0,11.719-5.226,11.719-11.72c0-6.495-5.225-11.727-11.719-11.727c-6.402,0-11.633,5.231-11.633,11.727    C306.049,199.328,311.279,204.554,317.682,204.554L317.682,204.554z" style="fill-rule:evenodd;clip-rule:evenodd;fill:#FFFFFF;"/><path d="M139.766,322.593v-14.067c0-1.62-0.632-2.797-2.256-2.797    c-1.263,0-2.433,0.813-3.696,1.989v14.875h-6.941v-14.067c0-1.62-0.542-2.797-2.166-2.797c-1.263,0-2.434,0.813-3.696,1.989    v14.875h-6.944v-22.539h6.134l0.539,3.062c1.984-1.983,4.058-3.519,6.944-3.519c3.065,0,4.778,1.535,5.589,3.519    c2.076-1.983,4.238-3.519,7.036-3.519c4.146,0,6.399,2.619,6.399,7.037v15.959H139.766z" style="fill-rule:evenodd;clip-rule:evenodd;fill:#FFFFFF;"/><path d="M160.956,323.042c-6.224,0-10.731-4.504-10.731-11.627    c0-7.215,4.6-11.818,10.82-11.818c6.224,0,10.823,4.512,10.823,11.727S167.179,323.042,160.956,323.042L160.956,323.042z     M161.045,305.278c-2.705,0-4.146,2.348-4.146,6.045c0,3.604,1.531,6.131,4.146,6.131c2.616,0,4.058-2.434,4.058-6.039    C165.103,307.718,163.661,305.278,161.045,305.278L161.045,305.278z" style="fill-rule:evenodd;clip-rule:evenodd;fill:#FFFFFF;"/><path d="M188.548,322.593v-14.067c0-1.62-0.629-2.797-2.25-2.797    c-1.354,0-2.618,0.813-3.882,2.076v14.788h-6.943v-22.539h6.134l0.539,3.062c1.984-1.892,4.152-3.519,7.037-3.519    c4.146,0,6.309,2.619,6.309,7.037v15.959H188.548L188.548,322.593z" style="fill-rule:evenodd;clip-rule:evenodd;fill:#FFFFFF;"/><path d="M219.479,313.036h-13.525c0.449,3.604,2.526,4.96,5.589,4.96    c2.434,0,4.874-0.899,7.395-2.349l0.634,4.875c-2.439,1.527-5.41,2.52-8.934,2.52c-6.76,0-11.535-3.604-11.535-11.627    c0-7.307,4.412-11.818,10.549-11.818c6.938,0,10.007,5.146,10.007,11.727C219.658,311.952,219.571,312.673,219.479,313.036    L219.479,313.036z M209.467,304.108c-1.887,0-3.334,1.712-3.513,5.139h7.037C212.806,305.913,211.635,304.108,209.467,304.108    L209.467,304.108z" style="fill-rule:evenodd;clip-rule:evenodd;fill:#FFFFFF;"/><path d="M235.438,323.042c-1.978,5.86-4.775,7.851-9.649,7.851    c-1.441,0-1.978-0.093-2.612-0.271l-0.905-5.504c0.727,0.18,1.441,0.357,2.797,0.357c1.535,0,2.884-0.628,3.611-2.162l0.271-0.721    l-8.121-22.004l7.395-0.813l4.332,14.159l4.146-13.882h6.766L235.438,323.042z" style="fill-rule:evenodd;clip-rule:evenodd;fill:#FFFFFF;"/><path d="M255.814,322.864c-3.599,0-7.03-0.629-9.649-1.621V290.49    l6.95-1.085v13.168c1.442-1.441,3.334-2.977,6.039-2.977c4.598,0,8.023,3.519,8.023,11.098    C267.178,319.074,262.766,322.864,255.814,322.864L255.814,322.864z M256.899,305.82c-1.442,0-2.613,0.905-3.784,2.163v8.928    c0.899,0.271,1.442,0.364,2.527,0.364c2.699,0,4.596-1.628,4.596-6.132C260.238,307.447,258.883,305.82,256.899,305.82    L256.899,305.82z" style="fill-rule:evenodd;clip-rule:evenodd;fill:#FFFFFF;"/><path d="M280.615,323.042c-6.131,0-10.727-4.504-10.727-11.627    c0-7.215,4.596-11.818,10.82-11.818c6.227,0,10.822,4.512,10.822,11.727S286.936,323.042,280.615,323.042L280.615,323.042z     M280.709,305.278c-2.711,0-4.061,2.348-4.061,6.045c0,3.604,1.447,6.131,4.061,6.131c2.611,0,4.146-2.434,4.146-6.039    C284.855,307.718,283.32,305.278,280.709,305.278L280.709,305.278z" style="fill-rule:evenodd;clip-rule:evenodd;fill:#FFFFFF;"/><path d="M304.879,323.042c-6.225,0-10.822-4.504-10.822-11.627    c0-7.215,4.598-11.818,10.822-11.818c6.223,0,10.818,4.512,10.818,11.727S311.102,323.042,304.879,323.042L304.879,323.042z     M304.879,305.278c-2.613,0-4.055,2.348-4.055,6.045c0,3.604,1.441,6.131,4.055,6.131c2.703,0,4.145-2.434,4.145-6.039    C309.023,307.718,307.582,305.278,304.879,305.278L304.879,305.278z" style="fill-rule:evenodd;clip-rule:evenodd;fill:#FFFFFF;"/><polygon points="332.826,322.864 326.338,312.13 326.338,322.593     319.395,322.593 319.395,290.49 326.338,289.405 326.338,309.339 332.383,300.054 339.777,300.054 332.74,310.331     340.049,321.871   " style="fill-rule:evenodd;clip-rule:evenodd;fill:#FFFFFF;"/><path d="M360.961,313.036h-13.518c0.355,3.604,2.52,4.96,5.494,4.96    c2.527,0,4.961-0.899,7.482-2.349l0.635,4.875c-2.436,1.527-5.404,2.52-8.93,2.52c-6.76,0-11.541-3.604-11.541-11.627    c0-7.307,4.512-11.818,10.549-11.818c6.945,0,10.014,5.146,10.014,11.727C361.146,311.952,361.055,312.673,360.961,313.036    L360.961,313.036z M350.955,304.108c-1.893,0-3.34,1.712-3.512,5.139h7.023C354.295,305.913,353.123,304.108,350.955,304.108    L350.955,304.108z" style="fill-rule:evenodd;clip-rule:evenodd;fill:#FFFFFF;"/><path d="M371.787,310.06v12.533h-6.943v-22.539h6.037l0.727,4.504    c1.35-2.613,3.242-4.689,6.582-4.961l1.17,7.129C376.02,306.905,373.5,308.254,371.787,310.06L371.787,310.06z" style="fill-rule:evenodd;clip-rule:evenodd;fill:#FFFFFF;"/><path d="M390.271,322.95c-3.604,0-6.943-0.986-9.285-2.25l0.807-5.323    c2.705,1.72,5.953,2.705,8.479,2.705c1.984,0,2.885-0.628,2.885-1.712c0-1.172-0.629-1.621-3.789-2.435    c-5.682-1.442-8.023-2.977-8.023-7.21c0-4.152,3.068-6.949,8.564-6.949c3.068,0,5.953,0.548,8.293,1.627l-0.807,5.322    c-2.434-1.355-5.23-2.168-7.393-2.168c-1.721,0-2.436,0.635-2.436,1.533c0,0.906,0.629,1.356,3.783,2.256    c6.045,1.621,8.121,3.155,8.121,7.301C399.471,320.337,396.225,322.95,390.271,322.95L390.271,322.95z" style="fill-rule:evenodd;clip-rule:evenodd;fill:#FFFFFF;"/></g></g><g id="Layer_1"/></svg>