<svg xmlns="http://www.w3.org/2000/svg" xmlns:xlink="http://www.w3.org/1999/xlink" style="enable-background:new 0 0 512 512;" version="1.1" xml:space="preserve" viewBox="16.05 106.04 479.9 299.91"><g id="commercial_x2C__cover_x2C__credit_x2C__card_x2C__western_x2C__union_x2C_"><g><path d="M495.951,389.996c0,8.836-7.123,15.959-15.959,15.959H32.012    c-8.836,0-15.963-7.123-15.963-15.959V122.004c0-8.836,7.127-15.959,15.963-15.959h447.98c8.836,0,15.959,7.123,15.959,15.959    V389.996z" style="fill-rule:evenodd;clip-rule:evenodd;fill:#141414;"/><rect height="60.6" style="fill-rule:evenodd;clip-rule:evenodd;fill:#FEDE38;" width="2.434" x="380.531" y="226.059"/><rect height="60.594" style="fill-rule:evenodd;clip-rule:evenodd;fill:#FEDE38;" width="2.436" x="351.496" y="225.881"/><polygon points="130.031,253.022 132.465,235.529 134.898,253.022     146.711,253.022 152.391,225.967 143.195,225.967 140.668,243.102 138.145,225.967 126.873,225.967 124.35,242.652     121.822,225.967 112.266,225.967 118.037,253.022   " style="fill-rule:evenodd;clip-rule:evenodd;fill:#FEDE38;"/><polygon points="156.992,253.022 180.436,253.022 180.436,245.985     168.625,245.985 168.625,242.744 179.805,242.744 179.805,235.801 168.625,235.801 168.625,232.91 180.076,232.91     180.076,225.967 156.992,225.967   " style="fill-rule:evenodd;clip-rule:evenodd;fill:#FEDE38;"/><path d="M185.486,244.272c0,0.364,0,0.728,0,0.993    c0,5.138,4.688,8.206,13.436,8.206c8.656,0,13.436-3.154,13.436-8.835c0-4.961-2.795-6.402-9.65-8.75    c-3.697-1.171-5.859-1.171-5.859-2.977c0-1.078,0.631-1.799,2.162-1.799c1.807,0,2.709,1.17,2.619,2.97h10.006v-1.079    c0-4.774-4.328-7.664-12.262-7.664c-8.748,0-13.438,3.34-13.438,8.657c0,3.789,2.348,6.038,7.215,7.394    c3.518,0.992,5.592,1.893,7.123,2.527c0.813,0.356,1.082,1.17,0.902,1.891c-0.09,1.084-0.721,1.713-2.344,1.713    c-1.984,0-2.525-1.17-2.525-2.977v-0.271H185.486L185.486,244.272z" style="fill-rule:evenodd;clip-rule:evenodd;fill:#FEDE38;"/><polygon points="240.943,225.967 215.244,225.967 215.244,233.182     222.459,233.182 222.459,253.022 233.82,253.022 233.82,233.182 240.943,233.182   " style="fill-rule:evenodd;clip-rule:evenodd;fill:#FEDE38;"/><polygon points="245.904,253.022 269.35,253.022 269.35,245.985     257.533,245.985 257.533,242.744 268.535,242.744 268.535,235.801 257.533,235.801 257.533,232.91 268.896,232.91     268.896,225.967 245.904,225.967   " style="fill-rule:evenodd;clip-rule:evenodd;fill:#FEDE38;"/><path d="M276.473,253.022h11.27v-9.649c0.363,0,0.721,0,0.992,0    c2.705,0,3.154,0.899,3.518,3.875l0.271,1.984c0.18,1.171,0.535,2.435,0.9,3.79h11.455c-0.543-1.984-0.906-3.61-1.086-4.868    l-0.363-2.889c-0.535-3.877-1.984-5.318-5.047-5.953c3.154-0.721,5.41-3.063,5.41-6.311c0-5.409-3.426-7.035-11.633-7.035h-15.688    V253.022L276.473,253.022z M287.742,236.7v-4.689c0.449,0,0.898,0,1.264,0c2.525,0,3.604,0.629,3.604,2.255    c0,1.713-1.35,2.527-4.055,2.527C288.285,236.793,288.014,236.793,287.742,236.7L287.742,236.7z" style="fill-rule:evenodd;clip-rule:evenodd;fill:#FEDE38;"/><polygon points="319.303,237.6 325.346,253.022 338.422,253.022     338.422,225.967 329.586,225.967 329.586,239.763 324.625,225.967 310.467,225.967 310.467,253.022 319.303,253.022   " style="fill-rule:evenodd;clip-rule:evenodd;fill:#FEDE38;"/><polygon points="229.941,269.795 235.982,285.217 249.059,285.217     249.059,258.253 240.223,258.253 240.223,271.957 235.174,258.253 221.104,258.253 221.104,285.217 229.941,285.217   " style="fill-rule:evenodd;clip-rule:evenodd;fill:#FEDE38;"/><polygon points="319.572,269.795 325.611,285.217 338.693,285.217     338.693,258.253 329.85,258.253 329.85,271.957 324.891,258.253 310.738,258.253 310.738,285.217 319.572,285.217   " style="fill-rule:evenodd;clip-rule:evenodd;fill:#FEDE38;"/><path d="M186.117,258.253v16.23c0,3.154,0.271,5.589,2.615,7.844    c2.523,2.434,6.131,3.339,11.273,3.339c9.375,0,13.885-3.518,13.885-11.183v-16.23h-11.273v16.681    c0,2.162-0.988,3.339-2.611,3.339c-1.805,0-2.709-1.084-2.709-3.339v-16.681H186.117L186.117,258.253z" style="fill-rule:evenodd;clip-rule:evenodd;fill:#FEDE38;"/><rect height="26.964" style="fill-rule:evenodd;clip-rule:evenodd;fill:#FEDE38;" width="11.541" x="256.363" y="258.253"/><path d="M288.912,285.666c10.285,0,15.781-4.959,15.781-14.158    c0-9.015-5.59-14.16-15.418-14.16c-9.826,0-15.418,5.146-15.418,14.252C273.857,280.521,279.359,285.666,288.912,285.666    L288.912,285.666z M289.275,263.663c2.613,0,3.248,2.342,3.248,7.394c0,5.768-0.635,8.387-3.248,8.387    c-2.617,0-3.338-2.619-3.338-7.758C285.938,266.184,286.57,263.663,289.275,263.663L289.275,263.663z" style="fill-rule:evenodd;clip-rule:evenodd;fill:#FEDE38;"/><path d="M395.318,225.608c-1.17,0-2.256,0.45-3.063,1.264    c-0.906,0.808-1.355,1.983-1.355,3.154s0.449,2.163,1.355,3.069c0.807,0.807,1.893,1.35,3.063,1.35    c1.172,0,2.256-0.543,3.154-1.35c0.814-0.814,1.264-1.898,1.264-3.069s-0.449-2.347-1.264-3.154    C397.574,226.059,396.49,225.608,395.318,225.608L395.318,225.608z M399.107,230.026c0,0.993-0.363,1.984-1.084,2.705    c-0.721,0.722-1.713,1.079-2.705,1.079s-1.984-0.357-2.705-1.171c-0.721-0.722-1.084-1.62-1.084-2.613    c0-0.991,0.363-1.983,1.178-2.796c0.627-0.723,1.619-1.079,2.611-1.079c1.084,0,1.984,0.356,2.705,1.171    C398.744,228.043,399.107,228.942,399.107,230.026L399.107,230.026z M395.41,227.408h-1.896v4.967h0.992v-2.077h0.904l0.992,2.077    h1.078l-1.078-2.256c0.723-0.186,1.078-0.635,1.078-1.355C397.48,227.863,396.854,227.408,395.41,227.408L395.41,227.408z     M395.232,228.043c0.898,0,1.35,0.185,1.35,0.813c0,0.629-0.451,0.808-1.264,0.808h-0.813v-1.62H395.232L395.232,228.043z" style="fill-rule:evenodd;clip-rule:evenodd;fill:#FEDE38;"/></g></g><g id="Layer_1"/></svg>